<?xml version="1.0" encoding="utf-8" standalone="no"?>
<!DOCTYPE svg PUBLIC "-//W3C//DTD SVG 1.1//EN"
  "http://www.w3.org/Graphics/SVG/1.1/DTD/svg11.dtd">
<svg xmlns:xlink="http://www.w3.org/1999/xlink" width="331.2pt" height="57.6pt" viewBox="0 0 331.2 57.6" xmlns="http://www.w3.org/2000/svg" version="1.1">
  <rect x="0" y="0" width="100%" height="100%" fill="white"/>
 <metadata>
  <rdf:RDF xmlns:dc="http://purl.org/dc/elements/1.1/" xmlns:cc="http://creativecommons.org/ns#" xmlns:rdf="http://www.w3.org/1999/02/22-rdf-syntax-ns#">
   <cc:Work>
    <dc:type rdf:resource="http://purl.org/dc/dcmitype/StillImage"/>
    <dc:date>2026-07-06T13:33:39.350581</dc:date>
    <dc:format>image/svg+xml</dc:format>
    <dc:creator>
     <cc:Agent>
      <dc:title>Matplotlib v3.10.8, https://matplotlib.org/</dc:title>
     </cc:Agent>
    </dc:creator>
   </cc:Work>
  </rdf:RDF>
 </metadata>
 <defs>
  <style type="text/css">*{stroke-linejoin: round; stroke-linecap: butt}</style>
 </defs>
 <g id="figure_1">
  <g id="patch_1">
   <path d="M 0 57.6 
L 331.2 57.6 
L 331.2 -0 
L 0 -0 
L 0 57.6 
z
" style="fill: none; opacity: 0"/>
  </g>
  <g id="axes_1">
   <g id="text_1">
    <!-- $F(s)=\frac{s+2}{(s+2)^2+4}=\frac{s+2}{s^2+4s+8}$ -->
    <g transform="translate(6.84 32.13) scale(0.18 -0.18)">
     <defs>
      <path id="DejaVuSans-Oblique-46" d="M 1081 4666 
L 3756 4666 
L 3653 4134 
L 1606 4134 
L 1338 2759 
L 3188 2759 
L 3084 2228 
L 1234 2228 
L 800 0 
L 172 0 
L 1081 4666 
z
" transform="scale(0.015625)"/>
      <path id="DejaVuSans-28" d="M 1984 4856 
Q 1566 4138 1362 3434 
Q 1159 2731 1159 2009 
Q 1159 1288 1364 580 
Q 1569 -128 1984 -844 
L 1484 -844 
Q 1016 -109 783 600 
Q 550 1309 550 2009 
Q 550 2706 781 3412 
Q 1013 4119 1484 4856 
L 1984 4856 
z
" transform="scale(0.015625)"/>
      <path id="DejaVuSans-Oblique-73" d="M 3200 3397 
L 3091 2853 
Q 2863 2978 2609 3040 
Q 2356 3103 2088 3103 
Q 1634 3103 1373 2948 
Q 1113 2794 1113 2528 
Q 1113 2219 1719 2053 
Q 1766 2041 1788 2034 
L 1972 1978 
Q 2547 1819 2739 1644 
Q 2931 1469 2931 1166 
Q 2931 609 2489 259 
Q 2047 -91 1331 -91 
Q 1053 -91 747 -37 
Q 441 16 72 128 
L 184 722 
Q 500 559 806 475 
Q 1113 391 1394 391 
Q 1816 391 2080 572 
Q 2344 753 2344 1031 
Q 2344 1331 1650 1516 
L 1591 1531 
L 1394 1581 
Q 956 1697 753 1886 
Q 550 2075 550 2369 
Q 550 2928 970 3256 
Q 1391 3584 2113 3584 
Q 2397 3584 2667 3537 
Q 2938 3491 3200 3397 
z
" transform="scale(0.015625)"/>
      <path id="DejaVuSans-29" d="M 513 4856 
L 1013 4856 
Q 1481 4119 1714 3412 
Q 1947 2706 1947 2009 
Q 1947 1309 1714 600 
Q 1481 -109 1013 -844 
L 513 -844 
Q 928 -128 1133 580 
Q 1338 1288 1338 2009 
Q 1338 2731 1133 3434 
Q 928 4138 513 4856 
z
" transform="scale(0.015625)"/>
      <path id="DejaVuSans-3d" d="M 678 2906 
L 4684 2906 
L 4684 2381 
L 678 2381 
L 678 2906 
z
M 678 1631 
L 4684 1631 
L 4684 1100 
L 678 1100 
L 678 1631 
z
" transform="scale(0.015625)"/>
      <path id="DejaVuSans-2b" d="M 2944 4013 
L 2944 2272 
L 4684 2272 
L 4684 1741 
L 2944 1741 
L 2944 0 
L 2419 0 
L 2419 1741 
L 678 1741 
L 678 2272 
L 2419 2272 
L 2419 4013 
L 2944 4013 
z
" transform="scale(0.015625)"/>
      <path id="DejaVuSans-32" d="M 1228 531 
L 3431 531 
L 3431 0 
L 469 0 
L 469 531 
Q 828 903 1448 1529 
Q 2069 2156 2228 2338 
Q 2531 2678 2651 2914 
Q 2772 3150 2772 3378 
Q 2772 3750 2511 3984 
Q 2250 4219 1831 4219 
Q 1534 4219 1204 4116 
Q 875 4013 500 3803 
L 500 4441 
Q 881 4594 1212 4672 
Q 1544 4750 1819 4750 
Q 2544 4750 2975 4387 
Q 3406 4025 3406 3419 
Q 3406 3131 3298 2873 
Q 3191 2616 2906 2266 
Q 2828 2175 2409 1742 
Q 1991 1309 1228 531 
z
" transform="scale(0.015625)"/>
      <path id="DejaVuSans-34" d="M 2419 4116 
L 825 1625 
L 2419 1625 
L 2419 4116 
z
M 2253 4666 
L 3047 4666 
L 3047 1625 
L 3713 1625 
L 3713 1100 
L 3047 1100 
L 3047 0 
L 2419 0 
L 2419 1100 
L 313 1100 
L 313 1709 
L 2253 4666 
z
" transform="scale(0.015625)"/>
      <path id="DejaVuSans-38" d="M 2034 2216 
Q 1584 2216 1326 1975 
Q 1069 1734 1069 1313 
Q 1069 891 1326 650 
Q 1584 409 2034 409 
Q 2484 409 2743 651 
Q 3003 894 3003 1313 
Q 3003 1734 2745 1975 
Q 2488 2216 2034 2216 
z
M 1403 2484 
Q 997 2584 770 2862 
Q 544 3141 544 3541 
Q 544 4100 942 4425 
Q 1341 4750 2034 4750 
Q 2731 4750 3128 4425 
Q 3525 4100 3525 3541 
Q 3525 3141 3298 2862 
Q 3072 2584 2669 2484 
Q 3125 2378 3379 2068 
Q 3634 1759 3634 1313 
Q 3634 634 3220 271 
Q 2806 -91 2034 -91 
Q 1263 -91 848 271 
Q 434 634 434 1313 
Q 434 1759 690 2068 
Q 947 2378 1403 2484 
z
M 1172 3481 
Q 1172 3119 1398 2916 
Q 1625 2713 2034 2713 
Q 2441 2713 2670 2916 
Q 2900 3119 2900 3481 
Q 2900 3844 2670 4047 
Q 2441 4250 2034 4250 
Q 1625 4250 1398 4047 
Q 1172 3844 1172 3481 
z
" transform="scale(0.015625)"/>
     </defs>
     <use xlink:href="#DejaVuSans-Oblique-46" transform="translate(0 0.254687)"/>
     <use xlink:href="#DejaVuSans-28" transform="translate(57.519531 0.254687)"/>
     <use xlink:href="#DejaVuSans-Oblique-73" transform="translate(96.533203 0.254687)"/>
     <use xlink:href="#DejaVuSans-29" transform="translate(148.632812 0.254687)"/>
     <use xlink:href="#DejaVuSans-3d" transform="translate(207.128906 0.254687)"/>
     <use xlink:href="#DejaVuSans-Oblique-73" transform="translate(419.400391 45.046875) scale(0.7)"/>
     <use xlink:href="#DejaVuSans-2b" transform="translate(469.507812 45.046875) scale(0.7)"/>
     <use xlink:href="#DejaVuSans-32" transform="translate(541.797852 45.046875) scale(0.7)"/>
     <use xlink:href="#DejaVuSans-28" transform="translate(310.400391 -50.3625) scale(0.7)"/>
     <use xlink:href="#DejaVuSans-Oblique-73" transform="translate(337.709961 -50.3625) scale(0.7)"/>
     <use xlink:href="#DejaVuSans-2b" transform="translate(387.817383 -50.3625) scale(0.7)"/>
     <use xlink:href="#DejaVuSans-32" transform="translate(460.107422 -50.3625) scale(0.7)"/>
     <use xlink:href="#DejaVuSans-29" transform="translate(504.643555 -50.3625) scale(0.7)"/>
     <use xlink:href="#DejaVuSans-32" transform="translate(532.623047 -23.565625) scale(0.49)"/>
     <use xlink:href="#DejaVuSans-2b" transform="translate(579.350098 -50.3625) scale(0.7)"/>
     <use xlink:href="#DejaVuSans-34" transform="translate(651.640137 -50.3625) scale(0.7)"/>
     <use xlink:href="#DejaVuSans-3d" transform="translate(728.158691 0.254687)"/>
     <use xlink:href="#DejaVuSans-Oblique-73" transform="translate(933.430176 45.046875) scale(0.7)"/>
     <use xlink:href="#DejaVuSans-2b" transform="translate(983.537598 45.046875) scale(0.7)"/>
     <use xlink:href="#DejaVuSans-32" transform="translate(1055.827637 45.046875) scale(0.7)"/>
     <use xlink:href="#DejaVuSans-Oblique-73" transform="translate(831.430176 -50.3625) scale(0.7)"/>
     <use xlink:href="#DejaVuSans-32" transform="translate(871.154829 -23.565625) scale(0.49)"/>
     <use xlink:href="#DejaVuSans-2b" transform="translate(917.88188 -50.3625) scale(0.7)"/>
     <use xlink:href="#DejaVuSans-34" transform="translate(990.171919 -50.3625) scale(0.7)"/>
     <use xlink:href="#DejaVuSans-Oblique-73" transform="translate(1034.708052 -50.3625) scale(0.7)"/>
     <use xlink:href="#DejaVuSans-2b" transform="translate(1084.815474 -50.3625) scale(0.7)"/>
     <use xlink:href="#DejaVuSans-38" transform="translate(1157.105513 -50.3625) scale(0.7)"/>
     <path d="M 310.400391 19.051563 
L 310.400391 25.301563 
L 696.17627 25.301563 
L 696.17627 19.051563 
L 310.400391 19.051563 
z
"/>
     <path d="M 831.430176 19.051563 
L 831.430176 25.301563 
L 1201.641646 25.301563 
L 1201.641646 19.051563 
L 831.430176 19.051563 
z
"/>
    </g>
   </g>
  </g>
 </g>
</svg>
