<?xml version="1.0" encoding="utf-8" standalone="no"?>
<!DOCTYPE svg PUBLIC "-//W3C//DTD SVG 1.1//EN"
  "http://www.w3.org/Graphics/SVG/1.1/DTD/svg11.dtd">
<svg xmlns:xlink="http://www.w3.org/1999/xlink" width="1015.2pt" height="79.2pt" viewBox="0 0 1015.2 79.2" xmlns="http://www.w3.org/2000/svg" version="1.1">
 <metadata>
  <rdf:RDF xmlns:dc="http://purl.org/dc/elements/1.1/" xmlns:cc="http://creativecommons.org/ns#" xmlns:rdf="http://www.w3.org/1999/02/22-rdf-syntax-ns#">
   <cc:Work>
    <dc:type rdf:resource="http://purl.org/dc/dcmitype/StillImage"/>
    <dc:date>2026-07-06T13:33:39.738070</dc:date>
    <dc:format>image/svg+xml</dc:format>
    <dc:creator>
     <cc:Agent>
      <dc:title>Matplotlib v3.10.8, https://matplotlib.org/</dc:title>
     </cc:Agent>
    </dc:creator>
   </cc:Work>
  </rdf:RDF>
 </metadata>
 <defs>
  <style type="text/css">*{stroke-linejoin: round; stroke-linecap: butt}</style>
 </defs>
 <g id="figure_1">
  <g id="patch_1">
   <path d="M 0 79.2 
L 1015.2 79.2 
L 1015.2 0 
L 0 0 
L 0 79.2 
z
" style="fill: none; opacity: 0"/>
  </g>
  <g id="axes_1">
   <g id="text_1">
    <!-- $F(t)=A_1\frac{k_{SE}}{\tau_1(k_{SE}+k_{PE})-b}\left(e^{-t/\tau_1}-e^{-(k_{SE}+k_{PE})t/b}\right)-A_2\frac{k_{SE}}{\tau_2(k_{SE}+k_{PE})-b}\left(e^{-t/\tau_2}-e^{-(k_{SE}+k_{PE})t/b}\right)$ -->
    <g transform="translate(13.68 44.73) scale(0.18 -0.18)">
     <defs>
      <path id="DejaVuSans-Oblique-46" d="M 1081 4666 
L 3756 4666 
L 3653 4134 
L 1606 4134 
L 1338 2759 
L 3188 2759 
L 3084 2228 
L 1234 2228 
L 800 0 
L 172 0 
L 1081 4666 
z
" transform="scale(0.015625)"/>
      <path id="DejaVuSans-28" d="M 1984 4856 
Q 1566 4138 1362 3434 
Q 1159 2731 1159 2009 
Q 1159 1288 1364 580 
Q 1569 -128 1984 -844 
L 1484 -844 
Q 1016 -109 783 600 
Q 550 1309 550 2009 
Q 550 2706 781 3412 
Q 1013 4119 1484 4856 
L 1984 4856 
z
" transform="scale(0.015625)"/>
      <path id="DejaVuSans-Oblique-74" d="M 2706 3500 
L 2619 3053 
L 1472 3053 
L 1100 1153 
Q 1081 1047 1072 975 
Q 1063 903 1063 863 
Q 1063 663 1183 572 
Q 1303 481 1569 481 
L 2150 481 
L 2053 0 
L 1503 0 
Q 991 0 739 200 
Q 488 400 488 806 
Q 488 878 497 964 
Q 506 1050 525 1153 
L 897 3053 
L 409 3053 
L 500 3500 
L 978 3500 
L 1172 4494 
L 1747 4494 
L 1556 3500 
L 2706 3500 
z
" transform="scale(0.015625)"/>
      <path id="DejaVuSans-29" d="M 513 4856 
L 1013 4856 
Q 1481 4119 1714 3412 
Q 1947 2706 1947 2009 
Q 1947 1309 1714 600 
Q 1481 -109 1013 -844 
L 513 -844 
Q 928 -128 1133 580 
Q 1338 1288 1338 2009 
Q 1338 2731 1133 3434 
Q 928 4138 513 4856 
z
" transform="scale(0.015625)"/>
      <path id="DejaVuSans-3d" d="M 678 2906 
L 4684 2906 
L 4684 2381 
L 678 2381 
L 678 2906 
z
M 678 1631 
L 4684 1631 
L 4684 1100 
L 678 1100 
L 678 1631 
z
" transform="scale(0.015625)"/>
      <path id="DejaVuSans-Oblique-41" d="M 2356 4666 
L 3072 4666 
L 3938 0 
L 3278 0 
L 3084 1197 
L 984 1197 
L 325 0 
L -341 0 
L 2356 4666 
z
M 2584 4044 
L 1275 1722 
L 2988 1722 
L 2584 4044 
z
" transform="scale(0.015625)"/>
      <path id="DejaVuSans-31" d="M 794 531 
L 1825 531 
L 1825 4091 
L 703 3866 
L 703 4441 
L 1819 4666 
L 2450 4666 
L 2450 531 
L 3481 531 
L 3481 0 
L 794 0 
L 794 531 
z
" transform="scale(0.015625)"/>
      <path id="DejaVuSans-Oblique-6b" d="M 1172 4863 
L 1747 4863 
L 1197 2028 
L 3169 3500 
L 3916 3500 
L 1716 1825 
L 3322 0 
L 2625 0 
L 1131 1709 
L 800 0 
L 225 0 
L 1172 4863 
z
" transform="scale(0.015625)"/>
      <path id="DejaVuSans-Oblique-53" d="M 3859 4513 
L 3738 3897 
Q 3422 4066 3111 4152 
Q 2800 4238 2509 4238 
Q 1944 4238 1609 3991 
Q 1275 3744 1275 3334 
Q 1275 3109 1398 2989 
Q 1522 2869 2034 2731 
L 2413 2638 
Q 3053 2472 3303 2217 
Q 3553 1963 3553 1503 
Q 3553 797 2998 353 
Q 2444 -91 1538 -91 
Q 1166 -91 791 -17 
Q 416 56 38 206 
L 166 856 
Q 513 641 861 531 
Q 1209 422 1556 422 
Q 2147 422 2503 684 
Q 2859 947 2859 1369 
Q 2859 1650 2717 1795 
Q 2575 1941 2106 2059 
L 1728 2156 
Q 1081 2325 845 2545 
Q 609 2766 609 3163 
Q 609 3859 1145 4304 
Q 1681 4750 2541 4750 
Q 2875 4750 3203 4690 
Q 3531 4631 3859 4513 
z
" transform="scale(0.015625)"/>
      <path id="DejaVuSans-Oblique-45" d="M 1081 4666 
L 4031 4666 
L 3928 4134 
L 1606 4134 
L 1338 2753 
L 3566 2753 
L 3463 2222 
L 1234 2222 
L 909 531 
L 3284 531 
L 3181 0 
L 172 0 
L 1081 4666 
z
" transform="scale(0.015625)"/>
      <path id="DejaVuSans-Oblique-3c4" d="M 2103 638 
Q 2188 488 2525 488 
L 2800 488 
L 2706 0 
L 2363 0 
Q 1800 0 1600 300 
Q 1403 606 1534 1269 
L 1856 2925 
L 541 2925 
L 653 3500 
L 3881 3500 
L 3769 2925 
L 2444 2925 
L 2113 1234 
Q 2025 781 2103 638 
z
" transform="scale(0.015625)"/>
      <path id="DejaVuSans-2b" d="M 2944 4013 
L 2944 2272 
L 4684 2272 
L 4684 1741 
L 2944 1741 
L 2944 0 
L 2419 0 
L 2419 1741 
L 678 1741 
L 678 2272 
L 2419 2272 
L 2419 4013 
L 2944 4013 
z
" transform="scale(0.015625)"/>
      <path id="DejaVuSans-Oblique-50" d="M 1081 4666 
L 2541 4666 
Q 3178 4666 3512 4369 
Q 3847 4072 3847 3500 
Q 3847 2731 3353 2303 
Q 2859 1875 1966 1875 
L 1172 1875 
L 806 0 
L 172 0 
L 1081 4666 
z
M 1613 4147 
L 1275 2394 
L 2069 2394 
Q 2606 2394 2893 2669 
Q 3181 2944 3181 3456 
Q 3181 3784 2986 3965 
Q 2791 4147 2438 4147 
L 1613 4147 
z
" transform="scale(0.015625)"/>
      <path id="DejaVuSans-2212" d="M 678 2272 
L 4684 2272 
L 4684 1741 
L 678 1741 
L 678 2272 
z
" transform="scale(0.015625)"/>
      <path id="DejaVuSans-Oblique-62" d="M 3169 2138 
Q 3169 2591 2961 2847 
Q 2753 3103 2388 3103 
Q 2122 3103 1889 2973 
Q 1656 2844 1484 2597 
Q 1303 2338 1198 1995 
Q 1094 1653 1094 1313 
Q 1094 881 1298 636 
Q 1503 391 1863 391 
Q 2134 391 2365 517 
Q 2597 644 2772 891 
Q 2950 1147 3059 1487 
Q 3169 1828 3169 2138 
z
M 1381 2969 
Q 1594 3256 1914 3420 
Q 2234 3584 2584 3584 
Q 3122 3584 3439 3221 
Q 3756 2859 3756 2241 
Q 3756 1734 3570 1259 
Q 3384 784 3041 416 
Q 2816 172 2522 40 
Q 2228 -91 1906 -91 
Q 1566 -91 1316 65 
Q 1066 222 909 531 
L 806 0 
L 231 0 
L 1178 4863 
L 1753 4863 
L 1381 2969 
z
" transform="scale(0.015625)"/>
      <path id="DejaVuSans-Oblique-65" d="M 3078 2063 
Q 3088 2113 3092 2166 
Q 3097 2219 3097 2272 
Q 3097 2653 2873 2875 
Q 2650 3097 2266 3097 
Q 1838 3097 1509 2826 
Q 1181 2556 1013 2059 
L 3078 2063 
z
M 3578 1613 
L 903 1613 
Q 884 1494 878 1425 
Q 872 1356 872 1306 
Q 872 872 1139 634 
Q 1406 397 1894 397 
Q 2269 397 2603 481 
Q 2938 566 3225 728 
L 3116 159 
Q 2806 34 2476 -28 
Q 2147 -91 1806 -91 
Q 1078 -91 686 257 
Q 294 606 294 1247 
Q 294 1794 489 2264 
Q 684 2734 1063 3103 
Q 1306 3334 1642 3459 
Q 1978 3584 2356 3584 
Q 2950 3584 3301 3228 
Q 3653 2872 3653 2272 
Q 3653 2128 3634 1964 
Q 3616 1800 3578 1613 
z
" transform="scale(0.015625)"/>
      <path id="DejaVuSans-2f" d="M 1625 4666 
L 2156 4666 
L 531 -594 
L 0 -594 
L 1625 4666 
z
" transform="scale(0.015625)"/>
      <path id="DejaVuSans-32" d="M 1228 531 
L 3431 531 
L 3431 0 
L 469 0 
L 469 531 
Q 828 903 1448 1529 
Q 2069 2156 2228 2338 
Q 2531 2678 2651 2914 
Q 2772 3150 2772 3378 
Q 2772 3750 2511 3984 
Q 2250 4219 1831 4219 
Q 1534 4219 1204 4116 
Q 875 4013 500 3803 
L 500 4441 
Q 881 4594 1212 4672 
Q 1544 4750 1819 4750 
Q 2544 4750 2975 4387 
Q 3406 4025 3406 3419 
Q 3406 3131 3298 2873 
Q 3191 2616 2906 2266 
Q 2828 2175 2409 1742 
Q 1991 1309 1228 531 
z
" transform="scale(0.015625)"/>
     </defs>
     <use xlink:href="#DejaVuSans-Oblique-46" transform="translate(0 0.832969)"/>
     <use xlink:href="#DejaVuSans-28" transform="translate(57.519531 0.832969)"/>
     <use xlink:href="#DejaVuSans-Oblique-74" transform="translate(96.533203 0.832969)"/>
     <use xlink:href="#DejaVuSans-29" transform="translate(135.742188 0.832969)"/>
     <use xlink:href="#DejaVuSans-3d" transform="translate(194.238281 0.832969)"/>
     <use xlink:href="#DejaVuSans-Oblique-41" transform="translate(297.509766 0.832969)"/>
     <use xlink:href="#DejaVuSans-31" transform="translate(365.917969 -15.573281) scale(0.7)"/>
     <use xlink:href="#DejaVuSans-Oblique-6b" transform="translate(638.188477 56.810938) scale(0.7)"/>
     <use xlink:href="#DejaVuSans-Oblique-53" transform="translate(678.725586 45.326562) scale(0.49)"/>
     <use xlink:href="#DejaVuSans-Oblique-45" transform="translate(709.829102 45.326562) scale(0.49)"/>
     <use xlink:href="#DejaVuSans-Oblique-3c4" transform="translate(413.188477 -39.809219) scale(0.7)"/>
     <use xlink:href="#DejaVuSans-31" transform="translate(455.332031 -51.293594) scale(0.49)"/>
     <use xlink:href="#DejaVuSans-28" transform="translate(488.421387 -39.809219) scale(0.7)"/>
     <use xlink:href="#DejaVuSans-Oblique-6b" transform="translate(515.730957 -39.809219) scale(0.7)"/>
     <use xlink:href="#DejaVuSans-Oblique-53" transform="translate(556.268066 -51.293594) scale(0.49)"/>
     <use xlink:href="#DejaVuSans-Oblique-45" transform="translate(587.371582 -51.293594) scale(0.49)"/>
     <use xlink:href="#DejaVuSans-2b" transform="translate(633.883301 -39.809219) scale(0.7)"/>
     <use xlink:href="#DejaVuSans-Oblique-6b" transform="translate(706.17334 -39.809219) scale(0.7)"/>
     <use xlink:href="#DejaVuSans-Oblique-50" transform="translate(746.710449 -51.293594) scale(0.49)"/>
     <use xlink:href="#DejaVuSans-Oblique-45" transform="translate(776.258789 -51.293594) scale(0.49)"/>
     <use xlink:href="#DejaVuSans-29" transform="translate(809.132812 -39.809219) scale(0.7)"/>
     <use xlink:href="#DejaVuSans-2212" transform="translate(850.080078 -39.809219) scale(0.7)"/>
     <use xlink:href="#DejaVuSans-Oblique-62" transform="translate(922.370117 -39.809219) scale(0.7)"/>
     <use xlink:href="#DejaVuSans-28" transform="translate(979.303711 0.832969)"/>
     <use xlink:href="#DejaVuSans-Oblique-65" transform="translate(1018.317383 0.832969)"/>
     <use xlink:href="#DejaVuSans-2212" transform="translate(1084.490716 39.114219) scale(0.7)"/>
     <use xlink:href="#DejaVuSans-Oblique-74" transform="translate(1143.14306 39.114219) scale(0.7)"/>
     <use xlink:href="#DejaVuSans-2f" transform="translate(1170.589349 39.114219) scale(0.7)"/>
     <use xlink:href="#DejaVuSans-Oblique-3c4" transform="translate(1194.173333 39.114219) scale(0.7)"/>
     <use xlink:href="#DejaVuSans-31" transform="translate(1236.316888 27.629844) scale(0.49)"/>
     <use xlink:href="#DejaVuSans-2212" transform="translate(1291.62304 0.832969)"/>
     <use xlink:href="#DejaVuSans-Oblique-65" transform="translate(1394.894525 0.832969)"/>
     <use xlink:href="#DejaVuSans-2212" transform="translate(1461.067858 39.114219) scale(0.7)"/>
     <use xlink:href="#DejaVuSans-28" transform="translate(1519.720202 39.114219) scale(0.7)"/>
     <use xlink:href="#DejaVuSans-Oblique-6b" transform="translate(1547.029772 39.114219) scale(0.7)"/>
     <use xlink:href="#DejaVuSans-Oblique-53" transform="translate(1587.566882 27.629844) scale(0.49)"/>
     <use xlink:href="#DejaVuSans-Oblique-45" transform="translate(1618.670397 27.629844) scale(0.49)"/>
     <use xlink:href="#DejaVuSans-2b" transform="translate(1665.182116 39.114219) scale(0.7)"/>
     <use xlink:href="#DejaVuSans-Oblique-6b" transform="translate(1737.472155 39.114219) scale(0.7)"/>
     <use xlink:href="#DejaVuSans-Oblique-50" transform="translate(1778.009264 27.629844) scale(0.49)"/>
     <use xlink:href="#DejaVuSans-Oblique-45" transform="translate(1807.557604 27.629844) scale(0.49)"/>
     <use xlink:href="#DejaVuSans-29" transform="translate(1840.431628 39.114219) scale(0.7)"/>
     <use xlink:href="#DejaVuSans-Oblique-74" transform="translate(1867.741198 39.114219) scale(0.7)"/>
     <use xlink:href="#DejaVuSans-2f" transform="translate(1895.187487 39.114219) scale(0.7)"/>
     <use xlink:href="#DejaVuSans-Oblique-62" transform="translate(1918.771471 39.114219) scale(0.7)"/>
     <use xlink:href="#DejaVuSans-29" transform="translate(1965.93944 0.832969)"/>
     <use xlink:href="#DejaVuSans-2212" transform="translate(2024.435534 0.832969)"/>
     <use xlink:href="#DejaVuSans-Oblique-41" transform="translate(2127.707018 0.832969)"/>
     <use xlink:href="#DejaVuSans-32" transform="translate(2196.115221 -15.573281) scale(0.7)"/>
     <use xlink:href="#DejaVuSans-Oblique-6b" transform="translate(2468.385729 56.810938) scale(0.7)"/>
     <use xlink:href="#DejaVuSans-Oblique-53" transform="translate(2508.922839 45.326562) scale(0.49)"/>
     <use xlink:href="#DejaVuSans-Oblique-45" transform="translate(2540.026354 45.326562) scale(0.49)"/>
     <use xlink:href="#DejaVuSans-Oblique-3c4" transform="translate(2243.385729 -39.809219) scale(0.7)"/>
     <use xlink:href="#DejaVuSans-32" transform="translate(2285.529284 -51.293594) scale(0.49)"/>
     <use xlink:href="#DejaVuSans-28" transform="translate(2318.618639 -39.809219) scale(0.7)"/>
     <use xlink:href="#DejaVuSans-Oblique-6b" transform="translate(2345.92821 -39.809219) scale(0.7)"/>
     <use xlink:href="#DejaVuSans-Oblique-53" transform="translate(2386.465319 -51.293594) scale(0.49)"/>
     <use xlink:href="#DejaVuSans-Oblique-45" transform="translate(2417.568835 -51.293594) scale(0.49)"/>
     <use xlink:href="#DejaVuSans-2b" transform="translate(2464.080553 -39.809219) scale(0.7)"/>
     <use xlink:href="#DejaVuSans-Oblique-6b" transform="translate(2536.370592 -39.809219) scale(0.7)"/>
     <use xlink:href="#DejaVuSans-Oblique-50" transform="translate(2576.907702 -51.293594) scale(0.49)"/>
     <use xlink:href="#DejaVuSans-Oblique-45" transform="translate(2606.456042 -51.293594) scale(0.49)"/>
     <use xlink:href="#DejaVuSans-29" transform="translate(2639.330065 -39.809219) scale(0.7)"/>
     <use xlink:href="#DejaVuSans-2212" transform="translate(2680.277331 -39.809219) scale(0.7)"/>
     <use xlink:href="#DejaVuSans-Oblique-62" transform="translate(2752.56737 -39.809219) scale(0.7)"/>
     <use xlink:href="#DejaVuSans-28" transform="translate(2809.500964 0.832969)"/>
     <use xlink:href="#DejaVuSans-Oblique-65" transform="translate(2848.514635 0.832969)"/>
     <use xlink:href="#DejaVuSans-2212" transform="translate(2914.687969 39.114219) scale(0.7)"/>
     <use xlink:href="#DejaVuSans-Oblique-74" transform="translate(2973.340312 39.114219) scale(0.7)"/>
     <use xlink:href="#DejaVuSans-2f" transform="translate(3000.786602 39.114219) scale(0.7)"/>
     <use xlink:href="#DejaVuSans-Oblique-3c4" transform="translate(3024.370586 39.114219) scale(0.7)"/>
     <use xlink:href="#DejaVuSans-32" transform="translate(3066.514141 27.629844) scale(0.49)"/>
     <use xlink:href="#DejaVuSans-2212" transform="translate(3121.820293 0.832969)"/>
     <use xlink:href="#DejaVuSans-Oblique-65" transform="translate(3225.091777 0.832969)"/>
     <use xlink:href="#DejaVuSans-2212" transform="translate(3291.265111 39.114219) scale(0.7)"/>
     <use xlink:href="#DejaVuSans-28" transform="translate(3349.917454 39.114219) scale(0.7)"/>
     <use xlink:href="#DejaVuSans-Oblique-6b" transform="translate(3377.227025 39.114219) scale(0.7)"/>
     <use xlink:href="#DejaVuSans-Oblique-53" transform="translate(3417.764134 27.629844) scale(0.49)"/>
     <use xlink:href="#DejaVuSans-Oblique-45" transform="translate(3448.86765 27.629844) scale(0.49)"/>
     <use xlink:href="#DejaVuSans-2b" transform="translate(3495.379368 39.114219) scale(0.7)"/>
     <use xlink:href="#DejaVuSans-Oblique-6b" transform="translate(3567.669408 39.114219) scale(0.7)"/>
     <use xlink:href="#DejaVuSans-Oblique-50" transform="translate(3608.206517 27.629844) scale(0.49)"/>
     <use xlink:href="#DejaVuSans-Oblique-45" transform="translate(3637.754857 27.629844) scale(0.49)"/>
     <use xlink:href="#DejaVuSans-29" transform="translate(3670.62888 39.114219) scale(0.7)"/>
     <use xlink:href="#DejaVuSans-Oblique-74" transform="translate(3697.938451 39.114219) scale(0.7)"/>
     <use xlink:href="#DejaVuSans-2f" transform="translate(3725.38474 39.114219) scale(0.7)"/>
     <use xlink:href="#DejaVuSans-Oblique-62" transform="translate(3748.968724 39.114219) scale(0.7)"/>
     <use xlink:href="#DejaVuSans-29" transform="translate(3796.136693 0.832969)"/>
     <path d="M 413.188477 19.629844 
L 413.188477 25.879844 
L 966.803711 25.879844 
L 966.803711 19.629844 
L 413.188477 19.629844 
z
"/>
     <path d="M 2243.385729 19.629844 
L 2243.385729 25.879844 
L 2797.000964 25.879844 
L 2797.000964 19.629844 
L 2243.385729 19.629844 
z
"/>
    </g>
   </g>
  </g>
 </g>
</svg>
